<svg xmlns="http://www.w3.org/2000/svg" xmlns:xlink="http://www.w3.org/1999/xlink" width="500" zoomAndPan="magnify" viewBox="0 0 375 149.999998" height="200" preserveAspectRatio="xMidYMid meet" version="1.0"><defs><g/><clipPath id="3ed92680c0"><path d="M 72.589844 55.109375 L 125.839844 55.109375 L 125.839844 117.359375 L 72.589844 117.359375 Z M 72.589844 55.109375 " clip-rule="nonzero"/></clipPath></defs><g fill="#ffffff" fill-opacity="1"><g transform="translate(21.152346, 109.499996)"><g><path d="M 20 -53.484375 C 21.582031 -54.867188 23.300781 -55.5625 25.15625 -55.5625 C 26.9375 -55.5625 28.222656 -55.082031 29.015625 -54.125 C 29.804688 -53.164062 30.347656 -51.992188 30.640625 -50.609375 C 30.941406 -49.222656 31.09375 -47.785156 31.09375 -46.296875 C 31.09375 -44.804688 31.160156 -43.535156 31.296875 -42.484375 C 31.359375 -42.023438 31.585938 -41.757812 31.984375 -41.6875 C 32.378906 -41.625 32.742188 -41.523438 33.078125 -41.390625 C 33.410156 -41.390625 33.753906 -41.40625 34.109375 -41.4375 C 34.472656 -41.476562 34.820312 -41.5 35.15625 -41.5 C 36.28125 -41.5 37.382812 -41.445312 38.46875 -41.34375 C 39.5625 -41.25 40.671875 -41.203125 41.796875 -41.203125 C 42.515625 -41.203125 43.238281 -41.234375 43.96875 -41.296875 C 44.695312 -41.359375 45.457031 -41.457031 46.25 -41.59375 C 46.1875 -41.726562 46.15625 -42.191406 46.15625 -42.984375 C 46.15625 -44.492188 46.285156 -45.972656 46.546875 -47.421875 C 46.804688 -48.878906 46.972656 -50.367188 47.046875 -51.890625 C 46.179688 -56.515625 44.234375 -60.804688 41.203125 -64.765625 C 40.804688 -65.492188 40.304688 -66.085938 39.703125 -66.546875 C 39.109375 -67.015625 38.460938 -67.425781 37.765625 -67.78125 C 37.078125 -68.144531 36.40625 -68.492188 35.75 -68.828125 C 35.09375 -69.160156 34.5 -69.585938 33.96875 -70.109375 C 31.71875 -70.835938 29.601562 -71.203125 27.625 -71.203125 C 25.644531 -71.203125 23.398438 -71.269531 20.890625 -71.40625 C 18.847656 -71.332031 16.9375 -71.226562 15.15625 -71.09375 C 13.375 -70.96875 11.6875 -70.441406 10.09375 -69.515625 C 8.3125 -67.398438 6.910156 -65.101562 5.890625 -62.625 C 4.867188 -60.15625 4.023438 -57.664062 3.359375 -55.15625 C 3.429688 -54.5 3.484375 -53.875 3.515625 -53.28125 C 3.546875 -52.6875 3.5625 -52.054688 3.5625 -51.390625 L 3.5625 -47.640625 C 3.5625 -42.878906 3.410156 -38.125 3.109375 -33.375 C 2.816406 -28.625 2.671875 -23.96875 2.671875 -19.40625 L 3.265625 -19.3125 C 3.128906 -20.238281 3.007812 -21.175781 2.90625 -22.125 C 2.8125 -23.082031 2.765625 -24.023438 2.765625 -24.953125 C 2.765625 -26.410156 2.898438 -27.566406 3.171875 -28.421875 L 3.265625 -28.21875 C 3.328125 -25.1875 3.425781 -21.9375 3.5625 -18.46875 C 3.695312 -15 4.191406 -11.78125 5.046875 -8.8125 C 5.910156 -5.84375 7.332031 -3.382812 9.3125 -1.4375 C 11.289062 0.507812 14.195312 1.484375 18.03125 1.484375 C 18.289062 1.484375 18.535156 1.414062 18.765625 1.28125 C 18.992188 1.15625 19.109375 0.925781 19.109375 0.59375 L 23.078125 1.484375 C 23.273438 1.546875 24.757812 1.578125 27.53125 1.578125 C 29.375 1.578125 31.398438 1.097656 33.609375 0.140625 C 35.828125 -0.804688 37.894531 -2.125 39.8125 -3.8125 C 41.726562 -5.5 43.328125 -7.476562 44.609375 -9.75 C 45.898438 -12.03125 46.546875 -14.523438 46.546875 -17.234375 C 46.546875 -18.953125 46.445312 -20.6875 46.25 -22.4375 C 46.050781 -24.1875 45.953125 -25.914062 45.953125 -27.625 C 45.421875 -28.019531 44.890625 -28.21875 44.359375 -28.21875 C 44.097656 -28.21875 43.851562 -28.1875 43.625 -28.125 C 43.394531 -28.0625 43.113281 -27.992188 42.78125 -27.921875 C 40.269531 -27.992188 38.421875 -28.03125 37.234375 -28.03125 C 36.046875 -28.03125 35.203125 -28.03125 34.703125 -28.03125 C 34.210938 -28.03125 33.867188 -28.046875 33.671875 -28.078125 C 33.472656 -28.109375 33.109375 -28.15625 32.578125 -28.21875 C 32.378906 -26.769531 32.25 -25.253906 32.1875 -23.671875 C 32.125 -22.085938 31.910156 -20.617188 31.546875 -19.265625 C 31.179688 -17.910156 30.519531 -16.800781 29.5625 -15.9375 C 28.601562 -15.082031 27.132812 -14.65625 25.15625 -14.65625 C 23.570312 -14.65625 22.300781 -15.132812 21.34375 -16.09375 C 20.382812 -17.050781 19.65625 -18.285156 19.15625 -19.796875 C 18.664062 -21.316406 18.351562 -22.96875 18.21875 -24.75 C 18.09375 -26.539062 18.03125 -28.289062 18.03125 -30 C 18.03125 -33.96875 18.09375 -37.617188 18.21875 -40.953125 C 18.351562 -44.285156 18.550781 -47.929688 18.8125 -51.890625 Z M 16.4375 -29.515625 C 16.5 -27.859375 16.613281 -26.003906 16.78125 -23.953125 C 16.945312 -21.910156 17.328125 -19.984375 17.921875 -18.171875 C 18.515625 -16.359375 19.4375 -14.835938 20.6875 -13.609375 C 21.945312 -12.390625 23.664062 -11.78125 25.84375 -11.78125 C 26.832031 -11.78125 27.5625 -11.914062 28.03125 -12.1875 C 28.6875 -13.238281 29.539062 -14.09375 30.59375 -14.75 C 31.65625 -15.414062 32.453125 -16.273438 32.984375 -17.328125 C 32.984375 -18.648438 33.160156 -19.90625 33.515625 -21.09375 C 33.878906 -22.28125 34.097656 -23.535156 34.171875 -24.859375 C 34.296875 -24.785156 34.691406 -24.75 35.359375 -24.75 C 36.210938 -24.75 37.101562 -24.832031 38.03125 -25 C 38.957031 -25.164062 39.847656 -25.25 40.703125 -25.25 C 41.890625 -25.25 42.796875 -24.882812 43.421875 -24.15625 C 44.046875 -23.4375 44.359375 -22.019531 44.359375 -19.90625 C 44.359375 -18.457031 44.289062 -17.070312 44.15625 -15.75 C 44.03125 -14.425781 43.640625 -13.039062 42.984375 -11.59375 L 43.375 -11.484375 C 42.78125 -9.640625 41.851562 -8.023438 40.59375 -6.640625 C 39.34375 -5.253906 37.910156 -4.097656 36.296875 -3.171875 C 34.679688 -2.242188 32.976562 -1.546875 31.1875 -1.078125 C 29.40625 -0.617188 27.691406 -0.390625 26.046875 -0.390625 C 22.679688 -0.390625 19.707031 -0.882812 17.125 -1.875 C 14.550781 -2.863281 12.375 -4.148438 10.59375 -5.734375 C 8.8125 -7.328125 7.472656 -9.097656 6.578125 -11.046875 C 5.691406 -12.992188 5.25 -14.921875 5.25 -16.828125 C 5.25 -17.953125 5.378906 -18.878906 5.640625 -19.609375 L 5.25 -21.1875 C 5.3125 -21.457031 5.34375 -21.722656 5.34375 -21.984375 C 5.34375 -22.242188 5.34375 -22.507812 5.34375 -22.78125 L 5.34375 -28.625 C 5.34375 -28.945312 5.359375 -29.253906 5.390625 -29.546875 C 5.429688 -29.847656 5.484375 -30.164062 5.546875 -30.5 L 5.34375 -30.40625 C 5.28125 -30.40625 5.25 -30.503906 5.25 -30.703125 C 5.25 -30.960938 5.347656 -31.585938 5.546875 -32.578125 L 5.046875 -32.875 C 5.046875 -33.601562 5.03125 -34.3125 5 -35 C 4.96875 -35.695312 4.953125 -36.410156 4.953125 -37.140625 C 4.953125 -39.578125 5.050781 -42.050781 5.25 -44.5625 L 5.640625 -50.40625 C 5.773438 -50.207031 5.828125 -50.007812 5.796875 -49.8125 C 5.765625 -49.613281 5.8125 -49.515625 5.9375 -49.515625 C 6.207031 -50.765625 6.320312 -52.097656 6.28125 -53.515625 C 6.25 -54.941406 6.265625 -56.347656 6.328125 -57.734375 C 6.398438 -59.117188 6.632812 -60.421875 7.03125 -61.640625 C 7.425781 -62.867188 8.21875 -63.976562 9.40625 -64.96875 L 11 -66.046875 L 11.1875 -65.859375 C 11.457031 -65.859375 11.65625 -66.003906 11.78125 -66.296875 C 11.914062 -66.597656 12.148438 -66.78125 12.484375 -66.84375 C 13.992188 -67.632812 15.625 -68.226562 17.375 -68.625 C 19.125 -69.019531 20.890625 -69.21875 22.671875 -69.21875 C 24.921875 -69.21875 27.132812 -68.9375 29.3125 -68.375 C 31.488281 -67.820312 33.535156 -67.082031 35.453125 -66.15625 C 36.703125 -64.832031 37.90625 -63.5625 39.0625 -62.34375 C 40.21875 -61.125 41.222656 -59.867188 42.078125 -58.578125 C 42.941406 -57.285156 43.617188 -55.878906 44.109375 -54.359375 C 44.609375 -52.847656 44.859375 -51.101562 44.859375 -49.125 C 44.859375 -48.132812 44.789062 -47.191406 44.65625 -46.296875 C 44.53125 -45.398438 44.46875 -44.457031 44.46875 -43.46875 L 43.875 -43.078125 L 32.875 -43.078125 C 32.675781 -44.460938 32.523438 -46.03125 32.421875 -47.78125 C 32.328125 -49.53125 32.046875 -51.164062 31.578125 -52.6875 C 31.117188 -54.207031 30.410156 -55.476562 29.453125 -56.5 C 28.503906 -57.519531 27.039062 -58.03125 25.0625 -58.03125 C 24.132812 -58.03125 23.421875 -57.878906 22.921875 -57.578125 C 22.429688 -57.285156 21.753906 -57.140625 20.890625 -57.140625 L 20.40625 -57.140625 C 18.625 -54.898438 17.53125 -52.457031 17.125 -49.8125 C 16.726562 -47.164062 16.53125 -44.359375 16.53125 -41.390625 L 16.53125 -35.0625 C 16.53125 -34.726562 16.53125 -34.378906 16.53125 -34.015625 C 16.53125 -33.648438 16.5 -33.304688 16.4375 -32.984375 Z M 16.4375 -29.515625 "/></g></g></g><g fill="#ffffff" fill-opacity="1"><g transform="translate(69.468749, 109.499996)"><g/></g></g><g fill="#ffffff" fill-opacity="1"><g transform="translate(89.273424, 109.499996)"><g/></g></g><g fill="#ffffff" fill-opacity="1"><g transform="translate(109.078099, 109.499996)"><g/></g></g><g fill="#ffffff" fill-opacity="1"><g transform="translate(128.871093, 109.499996)"><g><path d="M 43.28125 -71.109375 C 43.007812 -71.109375 42.84375 -71.054688 42.78125 -70.953125 C 42.71875 -70.859375 42.632812 -70.726562 42.53125 -70.5625 C 42.4375 -70.394531 42.289062 -70.257812 42.09375 -70.15625 C 41.894531 -70.0625 41.53125 -70.015625 41 -70.015625 C 39.28125 -70.015625 37.660156 -70.195312 36.140625 -70.5625 C 34.628906 -70.925781 32.914062 -71.109375 31 -71.109375 L 28.515625 -70.609375 C 29.242188 -68.097656 29.609375 -65.457031 29.609375 -62.6875 C 29.609375 -61.363281 29.554688 -60.007812 29.453125 -58.625 C 29.359375 -57.238281 29.242188 -55.953125 29.109375 -54.765625 C 28.984375 -53.578125 28.867188 -52.550781 28.765625 -51.6875 C 28.671875 -50.832031 28.625 -50.238281 28.625 -49.90625 C 28.625 -49.445312 28.65625 -49.1875 28.71875 -49.125 C 27.46875 -49.582031 26.226562 -50.039062 25 -50.5 C 23.78125 -50.96875 22.507812 -51.203125 21.1875 -51.203125 C 20.59375 -51.203125 19.664062 -51.082031 18.40625 -50.84375 C 17.15625 -50.613281 15.882812 -50.347656 14.59375 -50.046875 C 13.3125 -49.753906 12.175781 -49.476562 11.1875 -49.21875 C 10.195312 -48.957031 9.671875 -48.789062 9.609375 -48.71875 C 7.890625 -47.800781 6.484375 -46.46875 5.390625 -44.71875 C 4.304688 -42.96875 3.414062 -40.984375 2.71875 -38.765625 C 2.03125 -36.554688 1.550781 -34.195312 1.28125 -31.6875 C 1.019531 -29.175781 0.890625 -26.734375 0.890625 -24.359375 C 0.890625 -22.117188 1.148438 -19.828125 1.671875 -17.484375 C 2.203125 -15.140625 2.945312 -12.925781 3.90625 -10.84375 C 4.863281 -8.757812 5.953125 -6.875 7.171875 -5.1875 C 8.398438 -3.507812 9.707031 -2.242188 11.09375 -1.390625 C 11.03125 -1.316406 11 -1.21875 11 -1.09375 C 11 -0.894531 11.242188 -0.675781 11.734375 -0.4375 C 12.234375 -0.207031 12.859375 -0.015625 13.609375 0.140625 C 14.367188 0.304688 15.226562 0.4375 16.1875 0.53125 C 17.144531 0.632812 18.085938 0.6875 19.015625 0.6875 C 20.460938 0.6875 21.847656 0.554688 23.171875 0.296875 C 24.492188 0.0351562 25.617188 -0.457031 26.546875 -1.1875 C 26.941406 -1.644531 27.21875 -2.054688 27.375 -2.421875 C 27.539062 -2.785156 27.65625 -3.097656 27.71875 -3.359375 C 27.789062 -3.628906 27.859375 -3.878906 27.921875 -4.109375 C 27.992188 -4.335938 28.160156 -4.585938 28.421875 -4.859375 C 28.359375 -4.785156 28.328125 -4.488281 28.328125 -3.96875 L 28.421875 -0.6875 C 28.484375 -0.289062 28.546875 0.0507812 28.609375 0.34375 C 28.679688 0.644531 28.785156 0.796875 28.921875 0.796875 C 28.984375 0.796875 29.578125 0.628906 30.703125 0.296875 C 30.960938 0.234375 31.421875 0.179688 32.078125 0.140625 C 32.742188 0.109375 33.390625 0.078125 34.015625 0.046875 C 34.640625 0.015625 35.195312 -0.03125 35.6875 -0.09375 C 36.1875 -0.164062 36.4375 -0.265625 36.4375 -0.390625 L 37.828125 -0.390625 C 37.960938 -0.390625 38.09375 -0.375 38.21875 -0.34375 C 38.351562 -0.3125 38.488281 -0.296875 38.625 -0.296875 C 39.019531 -0.296875 39.203125 -0.441406 39.171875 -0.734375 C 39.140625 -1.035156 39.1875 -1.253906 39.3125 -1.390625 C 40.039062 -1.390625 40.550781 -1.207031 40.84375 -0.84375 C 41.144531 -0.476562 41.5625 -0.296875 42.09375 -0.296875 C 42.289062 -1.878906 42.390625 -3.53125 42.390625 -5.25 C 42.390625 -6.375 42.304688 -7.773438 42.140625 -9.453125 C 41.972656 -11.140625 41.890625 -12.773438 41.890625 -14.359375 L 41.890625 -19.015625 C 41.890625 -26.609375 42.101562 -33.921875 42.53125 -40.953125 C 42.957031 -47.984375 43.171875 -55 43.171875 -62 C 43.171875 -62.71875 43.171875 -63.835938 43.171875 -65.359375 C 43.171875 -66.878906 43.207031 -68.796875 43.28125 -71.109375 Z M 41.296875 -2.28125 C 39.242188 -2.144531 37.570312 -2.023438 36.28125 -1.921875 C 35 -1.828125 33.898438 -1.78125 32.984375 -1.78125 C 31.859375 -1.78125 30.734375 -1.945312 29.609375 -2.28125 C 29.609375 -3 29.570312 -3.65625 29.5 -4.25 C 29.4375 -4.851562 29.242188 -5.351562 28.921875 -5.75 C 29.117188 -6.007812 29.21875 -6.304688 29.21875 -6.640625 C 29.21875 -7.097656 28.953125 -7.425781 28.421875 -7.625 C 27.960938 -7.625 27.710938 -7.472656 27.671875 -7.171875 C 27.640625 -6.878906 27.523438 -6.632812 27.328125 -6.4375 C 26.410156 -6.175781 25.6875 -5.847656 25.15625 -5.453125 C 24.625 -5.054688 24.078125 -4.675781 23.515625 -4.3125 C 22.953125 -3.945312 22.289062 -3.628906 21.53125 -3.359375 C 20.78125 -3.097656 19.710938 -2.96875 18.328125 -2.96875 C 16.140625 -2.96875 14.335938 -3.234375 12.921875 -3.765625 C 11.503906 -4.296875 10.332031 -5.085938 9.40625 -6.140625 C 8.476562 -7.191406 7.71875 -8.492188 7.125 -10.046875 C 6.53125 -11.597656 5.972656 -13.398438 5.453125 -15.453125 C 4.921875 -17.566406 4.359375 -19.492188 3.765625 -21.234375 C 3.171875 -22.984375 2.875 -25.050781 2.875 -27.4375 C 2.875 -30.40625 3.1875 -33.175781 3.8125 -35.75 C 4.4375 -38.320312 5.289062 -40.546875 6.375 -42.421875 C 7.46875 -44.304688 8.738281 -45.796875 10.1875 -46.890625 C 11.644531 -47.984375 13.203125 -48.53125 14.859375 -48.53125 C 15.378906 -48.53125 15.875 -48.394531 16.34375 -48.125 C 17 -48.257812 17.789062 -48.441406 18.71875 -48.671875 C 19.644531 -48.898438 20.632812 -49.015625 21.6875 -49.015625 C 22.675781 -49.015625 23.613281 -48.785156 24.5 -48.328125 C 25.394531 -47.867188 26.335938 -47.640625 27.328125 -47.640625 C 27.722656 -47.640625 28.066406 -47.6875 28.359375 -47.78125 C 28.660156 -47.882812 28.945312 -47.9375 29.21875 -47.9375 C 29.476562 -47.9375 29.773438 -47.769531 30.109375 -47.4375 C 30.109375 -47.570312 30.125 -47.738281 30.15625 -47.9375 C 30.1875 -48.132812 30.203125 -48.332031 30.203125 -48.53125 C 30.203125 -48.851562 30.1875 -49.179688 30.15625 -49.515625 C 30.125 -49.847656 30.109375 -50.175781 30.109375 -50.5 C 30.234375 -55.320312 30.363281 -59.132812 30.5 -61.9375 C 30.632812 -64.75 30.765625 -66.550781 30.890625 -67.34375 C 31.023438 -68.269531 31.554688 -68.894531 32.484375 -69.21875 C 33.410156 -69.550781 34.070312 -69.71875 34.46875 -69.71875 L 34.5625 -69.71875 C 34.757812 -69.71875 34.957031 -69.734375 35.15625 -69.765625 C 35.351562 -69.796875 35.550781 -69.8125 35.75 -69.8125 C 36.875 -69.8125 37.929688 -69.679688 38.921875 -69.421875 C 39.910156 -69.160156 40.96875 -68.992188 42.09375 -68.921875 C 42.09375 -59.421875 41.941406 -50.160156 41.640625 -41.140625 C 41.347656 -32.128906 41.203125 -22.875 41.203125 -13.375 L 41.203125 -7.828125 C 41.203125 -6.898438 41.203125 -5.972656 41.203125 -5.046875 C 41.203125 -4.128906 41.234375 -3.207031 41.296875 -2.28125 Z M 23.671875 -40.015625 C 20.429688 -39.617188 17.804688 -38.328125 15.796875 -36.140625 C 13.785156 -33.960938 12.78125 -31.457031 12.78125 -28.625 C 12.78125 -27.4375 12.910156 -26.242188 13.171875 -25.046875 C 13.429688 -23.859375 13.726562 -22.609375 14.0625 -21.296875 C 14.195312 -20.367188 14.265625 -19.59375 14.265625 -18.96875 C 14.265625 -18.34375 14.425781 -17.726562 14.75 -17.125 C 15.21875 -16.132812 15.679688 -15.210938 16.140625 -14.359375 C 16.597656 -13.503906 17.125 -12.726562 17.71875 -12.03125 C 18.320312 -11.34375 19 -10.796875 19.75 -10.390625 C 20.507812 -9.992188 21.421875 -9.796875 22.484375 -9.796875 C 23.472656 -9.796875 24.378906 -10.0625 25.203125 -10.59375 C 26.023438 -11.125 26.734375 -11.832031 27.328125 -12.71875 C 27.921875 -13.613281 28.398438 -14.617188 28.765625 -15.734375 C 29.128906 -16.859375 29.378906 -17.984375 29.515625 -19.109375 C 29.515625 -19.179688 29.578125 -19.21875 29.703125 -19.21875 C 29.773438 -19.21875 29.84375 -19.164062 29.90625 -19.0625 C 29.96875 -18.96875 30.035156 -18.921875 30.109375 -18.921875 C 30.234375 -18.921875 30.34375 -19.378906 30.4375 -20.296875 C 30.539062 -21.222656 30.625 -22.28125 30.6875 -23.46875 C 30.757812 -24.65625 30.8125 -25.828125 30.84375 -26.984375 C 30.875 -28.140625 30.890625 -28.984375 30.890625 -29.515625 C 30.890625 -31.160156 30.820312 -32.644531 30.6875 -33.96875 C 30.5625 -35.289062 30.265625 -36.394531 29.796875 -37.28125 C 29.335938 -38.175781 28.679688 -38.851562 27.828125 -39.3125 C 26.972656 -39.78125 25.847656 -40.015625 24.453125 -40.015625 Z M 29.21875 -25.453125 C 29.21875 -23.867188 29.132812 -22.285156 28.96875 -20.703125 C 28.800781 -19.117188 28.503906 -17.695312 28.078125 -16.4375 C 27.648438 -15.1875 27.070312 -14.164062 26.34375 -13.375 C 25.613281 -12.582031 24.65625 -12.1875 23.46875 -12.1875 C 22.082031 -12.1875 20.8125 -12.5625 19.65625 -13.3125 C 18.5 -14.070312 17.488281 -15.113281 16.625 -16.4375 C 15.769531 -17.757812 15.09375 -19.3125 14.59375 -21.09375 C 14.101562 -22.875 13.859375 -24.753906 13.859375 -26.734375 C 13.859375 -28.785156 14.1875 -30.566406 14.84375 -32.078125 C 15.507812 -33.597656 16.367188 -34.867188 17.421875 -35.890625 C 18.484375 -36.921875 19.640625 -37.695312 20.890625 -38.21875 C 22.148438 -38.75 23.335938 -39.015625 24.453125 -39.015625 C 25.710938 -39.015625 26.671875 -38.601562 27.328125 -37.78125 C 27.992188 -36.957031 28.457031 -35.898438 28.71875 -34.609375 C 28.976562 -33.328125 29.125 -31.875 29.15625 -30.25 C 29.195312 -28.632812 29.21875 -27.035156 29.21875 -25.453125 Z M 29.21875 -25.453125 "/></g></g></g><g fill="#ffffff" fill-opacity="1"><g transform="translate(174.718926, 109.499996)"><g><path d="M 25.65625 -24.65625 C 27.363281 -24.59375 29.039062 -24.476562 30.6875 -24.3125 C 32.34375 -24.144531 33.898438 -24.0625 35.359375 -24.0625 C 36.609375 -24.0625 37.726562 -24.160156 38.71875 -24.359375 C 39.707031 -24.554688 40.566406 -25.019531 41.296875 -25.75 C 41.554688 -26.601562 41.6875 -27.890625 41.6875 -29.609375 C 41.6875 -31.328125 41.535156 -33.039062 41.234375 -34.75 C 40.941406 -36.46875 40.664062 -38.085938 40.40625 -39.609375 C 39.8125 -39.941406 39.460938 -40.535156 39.359375 -41.390625 C 39.265625 -42.253906 39.050781 -43.046875 38.71875 -43.765625 C 38.382812 -44.753906 37.722656 -45.675781 36.734375 -46.53125 C 35.742188 -47.394531 34.539062 -48.140625 33.125 -48.765625 C 31.707031 -49.398438 30.15625 -49.894531 28.46875 -50.25 C 26.789062 -50.613281 25.09375 -50.796875 23.375 -50.796875 C 21.59375 -50.796875 19.875 -50.679688 18.21875 -50.453125 C 16.570312 -50.222656 15.070312 -49.910156 13.71875 -49.515625 C 12.363281 -49.117188 11.191406 -48.671875 10.203125 -48.171875 C 9.210938 -47.679688 8.484375 -47.207031 8.015625 -46.75 C 5.972656 -44.757812 4.554688 -42.144531 3.765625 -38.90625 C 2.972656 -35.675781 2.578125 -32.148438 2.578125 -28.328125 L 2.578125 -21.296875 C 2.578125 -18.191406 2.988281 -15.269531 3.8125 -12.53125 C 4.632812 -9.789062 5.882812 -7.394531 7.5625 -5.34375 C 9.25 -3.300781 11.363281 -1.6875 13.90625 -0.5 C 16.457031 0.6875 19.445312 1.28125 22.875 1.28125 C 24.457031 1.28125 26.054688 1.128906 27.671875 0.828125 C 29.296875 0.535156 30.832031 0.113281 32.28125 -0.4375 C 33.738281 -1 35.023438 -1.625 36.140625 -2.3125 C 37.265625 -3.007812 38.191406 -3.757812 38.921875 -4.5625 C 39.710938 -5.476562 40.222656 -6.742188 40.453125 -8.359375 C 40.679688 -9.984375 40.796875 -11.65625 40.796875 -13.375 C 40.796875 -14.488281 40.78125 -15.625 40.75 -16.78125 C 40.71875 -17.9375 40.703125 -19.007812 40.703125 -20 C 40.441406 -19.738281 40.015625 -19.609375 39.421875 -19.609375 C 39.085938 -19.609375 38.539062 -19.609375 37.78125 -19.609375 C 37.019531 -19.609375 36.160156 -19.609375 35.203125 -19.609375 C 34.242188 -19.609375 33.234375 -19.640625 32.171875 -19.703125 C 31.117188 -19.773438 30.164062 -19.875 29.3125 -20 C 29.175781 -17.882812 28.644531 -16.019531 27.71875 -14.40625 C 26.800781 -12.789062 25.21875 -11.984375 22.96875 -11.984375 C 21.257812 -11.984375 20.023438 -12.441406 19.265625 -13.359375 C 18.503906 -14.285156 17.957031 -15.441406 17.625 -16.828125 C 17.289062 -18.222656 17.054688 -19.691406 16.921875 -21.234375 C 16.796875 -22.785156 16.535156 -24.222656 16.140625 -25.546875 C 16.796875 -25.222656 17.4375 -24.992188 18.0625 -24.859375 C 18.695312 -24.722656 19.3125 -24.65625 19.90625 -24.65625 C 20.4375 -24.65625 20.960938 -24.6875 21.484375 -24.75 C 22.015625 -24.820312 22.507812 -24.859375 22.96875 -24.859375 C 23.300781 -24.859375 23.664062 -24.789062 24.0625 -24.65625 C 24.457031 -24.519531 24.820312 -24.453125 25.15625 -24.453125 Z M 16.53125 -27.828125 C 16.207031 -27.234375 15.878906 -26.9375 15.546875 -26.9375 C 15.410156 -26.9375 15.273438 -26.953125 15.140625 -26.984375 C 15.015625 -27.015625 14.882812 -27.03125 14.75 -27.03125 C 14.226562 -25.113281 13.96875 -23.429688 13.96875 -21.984375 C 13.96875 -20.460938 14.164062 -18.941406 14.5625 -17.421875 C 14.957031 -15.910156 15.53125 -14.5625 16.28125 -13.375 C 17.039062 -12.1875 17.984375 -11.210938 19.109375 -10.453125 C 20.234375 -9.691406 21.519531 -9.3125 22.96875 -9.3125 C 24.226562 -9.3125 25.285156 -9.640625 26.140625 -10.296875 C 27.003906 -10.960938 27.734375 -11.789062 28.328125 -12.78125 C 28.921875 -13.769531 29.429688 -14.84375 29.859375 -16 C 30.285156 -17.15625 30.695312 -18.191406 31.09375 -19.109375 C 31.425781 -19.046875 31.707031 -19.015625 31.9375 -19.015625 C 32.164062 -19.015625 32.414062 -19.015625 32.6875 -19.015625 L 36.25 -19.015625 C 36.769531 -19.015625 37.296875 -19 37.828125 -18.96875 C 38.359375 -18.9375 38.953125 -18.882812 39.609375 -18.8125 C 39.609375 -13.40625 38.453125 -8.953125 36.140625 -5.453125 C 35.347656 -4.460938 34.625 -3.6875 33.96875 -3.125 C 33.3125 -2.5625 32.550781 -2.128906 31.6875 -1.828125 C 30.832031 -1.535156 29.789062 -1.351562 28.5625 -1.28125 C 27.34375 -1.21875 25.773438 -1.1875 23.859375 -1.1875 C 22.742188 -1.1875 21.609375 -1.203125 20.453125 -1.234375 C 19.296875 -1.265625 18.054688 -1.347656 16.734375 -1.484375 C 14.816406 -1.679688 13.03125 -2.554688 11.375 -4.109375 C 9.726562 -5.660156 8.28125 -7.691406 7.03125 -10.203125 C 5.78125 -12.710938 4.804688 -15.582031 4.109375 -18.8125 C 3.410156 -22.050781 3.0625 -25.484375 3.0625 -29.109375 C 3.0625 -33.597656 3.722656 -37.144531 5.046875 -39.75 C 6.367188 -42.363281 8.003906 -44.347656 9.953125 -45.703125 C 11.898438 -47.054688 13.976562 -47.914062 16.1875 -48.28125 C 18.40625 -48.644531 20.4375 -48.828125 22.28125 -48.828125 C 24.59375 -48.828125 26.703125 -48.707031 28.609375 -48.46875 C 30.523438 -48.238281 31.984375 -47.863281 32.984375 -47.34375 C 37.929688 -44.832031 40.40625 -39.644531 40.40625 -31.78125 C 40.40625 -30.863281 40.351562 -29.925781 40.25 -28.96875 C 40.15625 -28.007812 39.941406 -27.066406 39.609375 -26.140625 C 39.410156 -26.078125 38.914062 -26.046875 38.125 -26.046875 C 34.894531 -26.242188 32.238281 -26.375 30.15625 -26.4375 C 28.070312 -26.507812 26.570312 -26.609375 25.65625 -26.734375 C 24.726562 -26.867188 23.832031 -27.050781 22.96875 -27.28125 C 22.113281 -27.507812 21.222656 -27.625 20.296875 -27.625 C 19.773438 -27.625 19.296875 -27.570312 18.859375 -27.46875 C 18.429688 -27.375 18.019531 -27.328125 17.625 -27.328125 C 17.226562 -27.328125 16.863281 -27.492188 16.53125 -27.828125 Z M 29.703125 -31.984375 C 29.835938 -31.847656 29.921875 -31.726562 29.953125 -31.625 C 29.984375 -31.53125 30.097656 -31.484375 30.296875 -31.484375 C 30.429688 -31.484375 30.660156 -31.847656 30.984375 -32.578125 C 31.316406 -33.304688 31.484375 -33.835938 31.484375 -34.171875 C 31.484375 -35.484375 31.101562 -36.648438 30.34375 -37.671875 C 29.59375 -38.703125 28.851562 -39.644531 28.125 -40.5 C 28.0625 -40.4375 27.894531 -40.40625 27.625 -40.40625 C 27.101562 -40.40625 26.609375 -40.585938 26.140625 -40.953125 C 25.679688 -41.316406 25.15625 -41.5 24.5625 -41.5 C 24.289062 -41.5 24.039062 -41.476562 23.8125 -41.4375 C 23.582031 -41.40625 23.335938 -41.390625 23.078125 -41.390625 C 22.410156 -41.390625 21.878906 -41.535156 21.484375 -41.828125 C 21.085938 -42.128906 20.5625 -42.28125 19.90625 -42.28125 C 19.175781 -42.28125 18.578125 -42.097656 18.109375 -41.734375 C 17.648438 -41.378906 17.222656 -40.9375 16.828125 -40.40625 L 15.75 -38.8125 C 15.414062 -38.289062 15.050781 -37.832031 14.65625 -37.4375 C 14.71875 -37.363281 14.75 -37.03125 14.75 -36.4375 C 14.75 -35.976562 14.695312 -35.515625 14.59375 -35.046875 C 14.5 -34.585938 14.453125 -34.128906 14.453125 -33.671875 C 14.453125 -33.140625 14.597656 -32.757812 14.890625 -32.53125 C 15.191406 -32.300781 15.441406 -32.050781 15.640625 -31.78125 C 15.773438 -32.507812 16.269531 -32.875 17.125 -32.875 C 18.25 -32.875 19.71875 -32.660156 21.53125 -32.234375 C 23.351562 -31.804688 25.054688 -31.59375 26.640625 -31.59375 C 28.222656 -31.59375 29.242188 -31.722656 29.703125 -31.984375 Z M 17.03125 -34.0625 C 17.03125 -34.59375 16.929688 -35.070312 16.734375 -35.5 C 16.535156 -35.925781 16.4375 -36.335938 16.4375 -36.734375 C 16.4375 -37.265625 16.679688 -37.742188 17.171875 -38.171875 C 17.671875 -38.597656 18.300781 -38.960938 19.0625 -39.265625 C 19.820312 -39.566406 20.660156 -39.796875 21.578125 -39.953125 C 22.503906 -40.117188 23.429688 -40.203125 24.359375 -40.203125 C 26.410156 -40.203125 27.765625 -39.671875 28.421875 -38.609375 C 29.078125 -37.554688 29.40625 -36.175781 29.40625 -34.46875 C 29.082031 -34.46875 28.738281 -34.484375 28.375 -34.515625 C 28.007812 -34.546875 27.695312 -34.5625 27.4375 -34.5625 C 26.96875 -34.5625 26.734375 -34.429688 26.734375 -34.171875 C 26.671875 -34.234375 26.210938 -34.363281 25.359375 -34.5625 L 25.359375 -34.359375 C 25.359375 -34.296875 25.390625 -34.265625 25.453125 -34.265625 C 25.453125 -34.203125 25.421875 -34.132812 25.359375 -34.0625 C 24.828125 -34.132812 24.015625 -34.171875 22.921875 -34.171875 C 21.835938 -34.171875 20.601562 -34.171875 19.21875 -34.171875 C 17.894531 -34.171875 17.164062 -34.132812 17.03125 -34.0625 Z M 17.03125 -34.0625 "/></g></g></g><g fill="#ffffff" fill-opacity="1"><g transform="translate(218.685316, 109.499996)"><g><path d="M 44.765625 -21.984375 C 44.097656 -23.960938 43.269531 -25.644531 42.28125 -27.03125 C 41.289062 -28.414062 40.347656 -29.550781 39.453125 -30.4375 C 38.566406 -31.332031 37.789062 -31.976562 37.125 -32.375 C 36.46875 -32.78125 36.140625 -32.984375 36.140625 -32.984375 L 35.84375 -33.28125 C 35.382812 -33.738281 35.15625 -34.195312 35.15625 -34.65625 C 35.15625 -34.851562 35.253906 -35.050781 35.453125 -35.25 C 37.898438 -36.96875 39.929688 -39.046875 41.546875 -41.484375 C 43.160156 -43.929688 43.96875 -46.835938 43.96875 -50.203125 C 43.96875 -52.910156 43.441406 -55.617188 42.390625 -58.328125 C 41.460938 -60.109375 40.519531 -61.722656 39.5625 -63.171875 C 38.601562 -64.628906 37.460938 -65.898438 36.140625 -66.984375 C 34.828125 -68.078125 33.210938 -68.921875 31.296875 -69.515625 C 29.378906 -70.109375 27 -70.40625 24.15625 -70.40625 C 21.582031 -70.40625 18.972656 -70.238281 16.328125 -69.90625 C 13.691406 -69.582031 11.085938 -69.421875 8.515625 -69.421875 C 8.179688 -69.421875 7.863281 -69.4375 7.5625 -69.46875 C 7.269531 -69.5 6.960938 -69.515625 6.640625 -69.515625 C 6.242188 -69.390625 5.828125 -69.304688 5.390625 -69.265625 C 4.960938 -69.234375 4.617188 -68.988281 4.359375 -68.53125 L 4.265625 -64.171875 C 4.460938 -58.492188 4.5625 -52.816406 4.5625 -47.140625 C 4.5625 -41.128906 4.507812 -35.117188 4.40625 -29.109375 C 4.3125 -23.109375 4.265625 -17.101562 4.265625 -11.09375 L 4.265625 -5.15625 C 4.265625 -4.164062 4.265625 -3.171875 4.265625 -2.171875 C 4.265625 -1.179688 4.296875 -0.226562 4.359375 0.6875 C 5.085938 1.019531 5.894531 1.25 6.78125 1.375 C 7.675781 1.507812 8.582031 1.578125 9.5 1.578125 C 10.957031 1.578125 12.425781 1.492188 13.90625 1.328125 C 15.394531 1.171875 16.800781 1.09375 18.125 1.09375 C 19.3125 1.21875 20.5625 1.328125 21.875 1.421875 C 23.195312 1.523438 24.519531 1.578125 25.84375 1.578125 C 27.363281 1.578125 28.847656 1.460938 30.296875 1.234375 C 31.753906 1.003906 33.144531 0.59375 34.46875 0 L 34.765625 0.390625 C 35.878906 -0.203125 36.882812 -0.726562 37.78125 -1.1875 C 38.675781 -1.644531 39.382812 -2.039062 39.90625 -2.375 C 40.4375 -2.707031 41.0625 -3.367188 41.78125 -4.359375 C 42.507812 -5.347656 43.1875 -6.382812 43.8125 -7.46875 C 44.445312 -8.5625 44.992188 -9.503906 45.453125 -10.296875 C 45.921875 -11.085938 46.15625 -11.453125 46.15625 -11.390625 L 46.34375 -11.59375 L 46.34375 -12.078125 C 46.414062 -12.804688 46.46875 -13.484375 46.5 -14.109375 C 46.53125 -14.734375 46.546875 -15.3125 46.546875 -15.84375 C 46.546875 -17.164062 46.328125 -18.351562 45.890625 -19.40625 C 45.460938 -20.46875 45.117188 -21.257812 44.859375 -21.78125 L 44.859375 -21.890625 Z M 34.859375 -32.984375 C 34.796875 -32.984375 34.765625 -32.945312 34.765625 -32.875 C 34.765625 -32.8125 35.125 -32.582031 35.84375 -32.1875 C 37.894531 -31 39.5 -29.628906 40.65625 -28.078125 C 41.8125 -26.523438 42.664062 -24.972656 43.21875 -23.421875 C 43.78125 -21.867188 44.128906 -20.460938 44.265625 -19.203125 C 44.398438 -17.953125 44.46875 -17.03125 44.46875 -16.4375 C 44.46875 -14.851562 44.316406 -13.53125 44.015625 -12.46875 C 43.722656 -11.414062 43.257812 -10.425781 42.625 -9.5 C 42 -8.582031 41.15625 -7.609375 40.09375 -6.578125 C 39.039062 -5.554688 37.757812 -4.285156 36.25 -2.765625 C 36.113281 -2.242188 35.550781 -1.816406 34.5625 -1.484375 C 33.570312 -1.148438 32.398438 -0.898438 31.046875 -0.734375 C 29.691406 -0.578125 28.269531 -0.460938 26.78125 -0.390625 C 25.300781 -0.328125 24.03125 -0.296875 22.96875 -0.296875 C 21.519531 -0.296875 20.082031 -0.3125 18.65625 -0.34375 C 17.238281 -0.375 15.804688 -0.390625 14.359375 -0.390625 C 11.921875 -0.390625 9.578125 -0.289062 7.328125 -0.09375 L 8.515625 -0.390625 L 6.046875 -0.5 C 6.109375 -0.625 6.140625 -0.984375 6.140625 -1.578125 L 6.140625 -3.0625 C 6.140625 -3.988281 6.125 -4.960938 6.09375 -5.984375 C 6.0625 -7.015625 6.046875 -7.988281 6.046875 -8.90625 C 6.046875 -9.5 6.078125 -10.0625 6.140625 -10.59375 C 6.203125 -11.125 6.234375 -11.617188 6.234375 -12.078125 C 6.234375 -12.273438 6.21875 -12.472656 6.1875 -12.671875 C 6.15625 -12.867188 6.140625 -13.035156 6.140625 -13.171875 C 6.140625 -13.503906 6.207031 -13.734375 6.34375 -13.859375 C 6.46875 -13.460938 6.53125 -13.300781 6.53125 -13.375 L 6.640625 -13.375 C 6.640625 -15.28125 6.617188 -17.207031 6.578125 -19.15625 C 6.546875 -21.101562 6.53125 -23.070312 6.53125 -25.0625 C 6.53125 -27.363281 6.5625 -29.632812 6.625 -31.875 C 6.695312 -34.125 6.863281 -36.335938 7.125 -38.515625 C 7 -40.234375 6.914062 -41.785156 6.875 -43.171875 C 6.84375 -44.554688 6.828125 -46.023438 6.828125 -47.578125 C 6.828125 -49.128906 6.8125 -50.894531 6.78125 -52.875 C 6.75 -54.863281 6.703125 -57.3125 6.640625 -60.21875 L 6.640625 -66.84375 C 6.703125 -66.90625 6.734375 -67.140625 6.734375 -67.546875 L 6.734375 -67.9375 C 6.734375 -67.9375 6.863281 -67.96875 7.125 -68.03125 C 7.394531 -68.101562 7.941406 -68.171875 8.765625 -68.234375 C 9.585938 -68.296875 10.773438 -68.34375 12.328125 -68.375 C 13.878906 -68.414062 15.941406 -68.4375 18.515625 -68.4375 C 20.628906 -68.4375 22.972656 -68.269531 25.546875 -67.9375 C 28.117188 -67.601562 30.265625 -67.039062 31.984375 -66.25 C 32.773438 -65.988281 33.695312 -65.425781 34.75 -64.5625 C 35.8125 -63.707031 36.804688 -62.585938 37.734375 -61.203125 C 38.660156 -59.816406 39.4375 -58.195312 40.0625 -56.34375 C 40.6875 -54.5 41 -52.453125 41 -50.203125 L 41 -48.625 C 41.0625 -48.488281 41.09375 -48.160156 41.09375 -47.640625 L 41.09375 -46.84375 C 41.09375 -45.125 40.78125 -43.753906 40.15625 -42.734375 C 39.53125 -41.710938 38.800781 -40.800781 37.96875 -40 C 37.144531 -39.207031 36.269531 -38.460938 35.34375 -37.765625 C 34.425781 -37.078125 33.671875 -36.238281 33.078125 -35.25 C 33.078125 -34.457031 33.472656 -33.832031 34.265625 -33.375 Z M 25.65625 -27.828125 C 24.132812 -28.222656 22.613281 -28.453125 21.09375 -28.515625 C 19.570312 -28.585938 18.050781 -28.6875 16.53125 -28.8125 L 15.9375 -12.875 L 17.328125 -11.984375 C 18.648438 -12.046875 20.117188 -12.0625 21.734375 -12.03125 C 23.347656 -12 24.863281 -12.164062 26.28125 -12.53125 C 27.707031 -12.894531 28.898438 -13.601562 29.859375 -14.65625 C 30.816406 -15.707031 31.296875 -17.328125 31.296875 -19.515625 C 31.296875 -21.617188 30.765625 -23.460938 29.703125 -25.046875 C 28.648438 -26.640625 27.300781 -27.566406 25.65625 -27.828125 Z M 17.125 -55.15625 C 16.601562 -54.632812 16.34375 -53.941406 16.34375 -53.078125 C 16.34375 -52.742188 16.359375 -52.394531 16.390625 -52.03125 C 16.421875 -51.675781 16.4375 -51.332031 16.4375 -51 L 16.734375 -52.1875 C 16.867188 -51.65625 16.9375 -51.289062 16.9375 -51.09375 L 16.9375 -50.109375 C 16.9375 -48.984375 16.851562 -47.910156 16.6875 -46.890625 C 16.519531 -45.867188 16.4375 -44.796875 16.4375 -43.671875 C 16.4375 -42.148438 16.765625 -41.257812 17.421875 -41 C 18.085938 -40.738281 18.984375 -40.609375 20.109375 -40.609375 C 21.222656 -40.609375 22.441406 -40.707031 23.765625 -40.90625 C 25.085938 -41.101562 26.328125 -41.5 27.484375 -42.09375 C 28.640625 -42.6875 29.59375 -43.539062 30.34375 -44.65625 C 31.101562 -45.78125 31.484375 -47.269531 31.484375 -49.125 C 31.484375 -50.375 31.132812 -51.410156 30.4375 -52.234375 C 29.75 -53.066406 28.894531 -53.726562 27.875 -54.21875 C 26.851562 -54.71875 25.75 -55.046875 24.5625 -55.203125 C 23.375 -55.367188 22.316406 -55.453125 21.390625 -55.453125 C 20.660156 -55.453125 19.929688 -55.421875 19.203125 -55.359375 C 18.484375 -55.296875 17.789062 -55.226562 17.125 -55.15625 Z M 28.125 -43.96875 C 27.195312 -42.84375 26.101562 -42.148438 24.84375 -41.890625 C 23.59375 -41.628906 22.273438 -41.5 20.890625 -41.5 C 20.367188 -41.5 19.828125 -41.515625 19.265625 -41.546875 C 18.703125 -41.578125 18.15625 -41.59375 17.625 -41.59375 C 17.425781 -42.976562 17.328125 -44.53125 17.328125 -46.25 C 17.328125 -47.570312 17.359375 -48.890625 17.421875 -50.203125 C 17.492188 -51.523438 17.53125 -52.78125 17.53125 -53.96875 C 17.863281 -54.039062 18.144531 -54.09375 18.375 -54.125 C 18.601562 -54.15625 18.785156 -54.171875 18.921875 -54.171875 C 19.640625 -54.171875 20.410156 -54.070312 21.234375 -53.875 C 22.066406 -53.675781 22.910156 -53.578125 23.765625 -53.578125 C 24.296875 -53.578125 24.890625 -53.492188 25.546875 -53.328125 C 26.210938 -53.160156 26.820312 -52.894531 27.375 -52.53125 C 27.9375 -52.164062 28.414062 -51.71875 28.8125 -51.1875 C 29.207031 -50.664062 29.40625 -50.039062 29.40625 -49.3125 C 29.40625 -48.195312 29.109375 -47.109375 28.515625 -46.046875 C 27.921875 -44.992188 27.128906 -44.101562 26.140625 -43.375 Z M 27.140625 -15.75 C 26.546875 -14.625 25.671875 -13.894531 24.515625 -13.5625 C 23.359375 -13.238281 22.347656 -13.078125 21.484375 -13.078125 C 20.691406 -13.078125 20.097656 -13.125 19.703125 -13.21875 C 19.304688 -13.320312 18.910156 -13.375 18.515625 -13.375 L 17.828125 -13.375 C 17.554688 -13.375 17.390625 -13.40625 17.328125 -13.46875 C 17.597656 -14.0625 17.734375 -15.117188 17.734375 -16.640625 C 17.734375 -17.035156 17.710938 -17.53125 17.671875 -18.125 C 17.640625 -18.71875 17.625 -19.441406 17.625 -20.296875 L 17.625 -25.953125 C 18.550781 -25.878906 19.640625 -25.859375 20.890625 -25.890625 C 22.148438 -25.929688 23.359375 -25.816406 24.515625 -25.546875 C 25.671875 -25.285156 26.644531 -24.757812 27.4375 -23.96875 C 28.226562 -23.175781 28.625 -21.921875 28.625 -20.203125 C 28.625 -19.410156 28.503906 -18.632812 28.265625 -17.875 C 28.035156 -17.113281 27.660156 -16.40625 27.140625 -15.75 Z M 27.140625 -15.75 "/></g></g></g><g fill="#ffffff" fill-opacity="1"><g transform="translate(265.919475, 109.499996)"><g><path d="M 25.65625 -24.65625 C 27.363281 -24.59375 29.039062 -24.476562 30.6875 -24.3125 C 32.34375 -24.144531 33.898438 -24.0625 35.359375 -24.0625 C 36.609375 -24.0625 37.726562 -24.160156 38.71875 -24.359375 C 39.707031 -24.554688 40.566406 -25.019531 41.296875 -25.75 C 41.554688 -26.601562 41.6875 -27.890625 41.6875 -29.609375 C 41.6875 -31.328125 41.535156 -33.039062 41.234375 -34.75 C 40.941406 -36.46875 40.664062 -38.085938 40.40625 -39.609375 C 39.8125 -39.941406 39.460938 -40.535156 39.359375 -41.390625 C 39.265625 -42.253906 39.050781 -43.046875 38.71875 -43.765625 C 38.382812 -44.753906 37.722656 -45.675781 36.734375 -46.53125 C 35.742188 -47.394531 34.539062 -48.140625 33.125 -48.765625 C 31.707031 -49.398438 30.15625 -49.894531 28.46875 -50.25 C 26.789062 -50.613281 25.09375 -50.796875 23.375 -50.796875 C 21.59375 -50.796875 19.875 -50.679688 18.21875 -50.453125 C 16.570312 -50.222656 15.070312 -49.910156 13.71875 -49.515625 C 12.363281 -49.117188 11.191406 -48.671875 10.203125 -48.171875 C 9.210938 -47.679688 8.484375 -47.207031 8.015625 -46.75 C 5.972656 -44.757812 4.554688 -42.144531 3.765625 -38.90625 C 2.972656 -35.675781 2.578125 -32.148438 2.578125 -28.328125 L 2.578125 -21.296875 C 2.578125 -18.191406 2.988281 -15.269531 3.8125 -12.53125 C 4.632812 -9.789062 5.882812 -7.394531 7.5625 -5.34375 C 9.25 -3.300781 11.363281 -1.6875 13.90625 -0.5 C 16.457031 0.6875 19.445312 1.28125 22.875 1.28125 C 24.457031 1.28125 26.054688 1.128906 27.671875 0.828125 C 29.296875 0.535156 30.832031 0.113281 32.28125 -0.4375 C 33.738281 -1 35.023438 -1.625 36.140625 -2.3125 C 37.265625 -3.007812 38.191406 -3.757812 38.921875 -4.5625 C 39.710938 -5.476562 40.222656 -6.742188 40.453125 -8.359375 C 40.679688 -9.984375 40.796875 -11.65625 40.796875 -13.375 C 40.796875 -14.488281 40.78125 -15.625 40.75 -16.78125 C 40.71875 -17.9375 40.703125 -19.007812 40.703125 -20 C 40.441406 -19.738281 40.015625 -19.609375 39.421875 -19.609375 C 39.085938 -19.609375 38.539062 -19.609375 37.78125 -19.609375 C 37.019531 -19.609375 36.160156 -19.609375 35.203125 -19.609375 C 34.242188 -19.609375 33.234375 -19.640625 32.171875 -19.703125 C 31.117188 -19.773438 30.164062 -19.875 29.3125 -20 C 29.175781 -17.882812 28.644531 -16.019531 27.71875 -14.40625 C 26.800781 -12.789062 25.21875 -11.984375 22.96875 -11.984375 C 21.257812 -11.984375 20.023438 -12.441406 19.265625 -13.359375 C 18.503906 -14.285156 17.957031 -15.441406 17.625 -16.828125 C 17.289062 -18.222656 17.054688 -19.691406 16.921875 -21.234375 C 16.796875 -22.785156 16.535156 -24.222656 16.140625 -25.546875 C 16.796875 -25.222656 17.4375 -24.992188 18.0625 -24.859375 C 18.695312 -24.722656 19.3125 -24.65625 19.90625 -24.65625 C 20.4375 -24.65625 20.960938 -24.6875 21.484375 -24.75 C 22.015625 -24.820312 22.507812 -24.859375 22.96875 -24.859375 C 23.300781 -24.859375 23.664062 -24.789062 24.0625 -24.65625 C 24.457031 -24.519531 24.820312 -24.453125 25.15625 -24.453125 Z M 16.53125 -27.828125 C 16.207031 -27.234375 15.878906 -26.9375 15.546875 -26.9375 C 15.410156 -26.9375 15.273438 -26.953125 15.140625 -26.984375 C 15.015625 -27.015625 14.882812 -27.03125 14.75 -27.03125 C 14.226562 -25.113281 13.96875 -23.429688 13.96875 -21.984375 C 13.96875 -20.460938 14.164062 -18.941406 14.5625 -17.421875 C 14.957031 -15.910156 15.53125 -14.5625 16.28125 -13.375 C 17.039062 -12.1875 17.984375 -11.210938 19.109375 -10.453125 C 20.234375 -9.691406 21.519531 -9.3125 22.96875 -9.3125 C 24.226562 -9.3125 25.285156 -9.640625 26.140625 -10.296875 C 27.003906 -10.960938 27.734375 -11.789062 28.328125 -12.78125 C 28.921875 -13.769531 29.429688 -14.84375 29.859375 -16 C 30.285156 -17.15625 30.695312 -18.191406 31.09375 -19.109375 C 31.425781 -19.046875 31.707031 -19.015625 31.9375 -19.015625 C 32.164062 -19.015625 32.414062 -19.015625 32.6875 -19.015625 L 36.25 -19.015625 C 36.769531 -19.015625 37.296875 -19 37.828125 -18.96875 C 38.359375 -18.9375 38.953125 -18.882812 39.609375 -18.8125 C 39.609375 -13.40625 38.453125 -8.953125 36.140625 -5.453125 C 35.347656 -4.460938 34.625 -3.6875 33.96875 -3.125 C 33.3125 -2.5625 32.550781 -2.128906 31.6875 -1.828125 C 30.832031 -1.535156 29.789062 -1.351562 28.5625 -1.28125 C 27.34375 -1.21875 25.773438 -1.1875 23.859375 -1.1875 C 22.742188 -1.1875 21.609375 -1.203125 20.453125 -1.234375 C 19.296875 -1.265625 18.054688 -1.347656 16.734375 -1.484375 C 14.816406 -1.679688 13.03125 -2.554688 11.375 -4.109375 C 9.726562 -5.660156 8.28125 -7.691406 7.03125 -10.203125 C 5.78125 -12.710938 4.804688 -15.582031 4.109375 -18.8125 C 3.410156 -22.050781 3.0625 -25.484375 3.0625 -29.109375 C 3.0625 -33.597656 3.722656 -37.144531 5.046875 -39.75 C 6.367188 -42.363281 8.003906 -44.347656 9.953125 -45.703125 C 11.898438 -47.054688 13.976562 -47.914062 16.1875 -48.28125 C 18.40625 -48.644531 20.4375 -48.828125 22.28125 -48.828125 C 24.59375 -48.828125 26.703125 -48.707031 28.609375 -48.46875 C 30.523438 -48.238281 31.984375 -47.863281 32.984375 -47.34375 C 37.929688 -44.832031 40.40625 -39.644531 40.40625 -31.78125 C 40.40625 -30.863281 40.351562 -29.925781 40.25 -28.96875 C 40.15625 -28.007812 39.941406 -27.066406 39.609375 -26.140625 C 39.410156 -26.078125 38.914062 -26.046875 38.125 -26.046875 C 34.894531 -26.242188 32.238281 -26.375 30.15625 -26.4375 C 28.070312 -26.507812 26.570312 -26.609375 25.65625 -26.734375 C 24.726562 -26.867188 23.832031 -27.050781 22.96875 -27.28125 C 22.113281 -27.507812 21.222656 -27.625 20.296875 -27.625 C 19.773438 -27.625 19.296875 -27.570312 18.859375 -27.46875 C 18.429688 -27.375 18.019531 -27.328125 17.625 -27.328125 C 17.226562 -27.328125 16.863281 -27.492188 16.53125 -27.828125 Z M 29.703125 -31.984375 C 29.835938 -31.847656 29.921875 -31.726562 29.953125 -31.625 C 29.984375 -31.53125 30.097656 -31.484375 30.296875 -31.484375 C 30.429688 -31.484375 30.660156 -31.847656 30.984375 -32.578125 C 31.316406 -33.304688 31.484375 -33.835938 31.484375 -34.171875 C 31.484375 -35.484375 31.101562 -36.648438 30.34375 -37.671875 C 29.59375 -38.703125 28.851562 -39.644531 28.125 -40.5 C 28.0625 -40.4375 27.894531 -40.40625 27.625 -40.40625 C 27.101562 -40.40625 26.609375 -40.585938 26.140625 -40.953125 C 25.679688 -41.316406 25.15625 -41.5 24.5625 -41.5 C 24.289062 -41.5 24.039062 -41.476562 23.8125 -41.4375 C 23.582031 -41.40625 23.335938 -41.390625 23.078125 -41.390625 C 22.410156 -41.390625 21.878906 -41.535156 21.484375 -41.828125 C 21.085938 -42.128906 20.5625 -42.28125 19.90625 -42.28125 C 19.175781 -42.28125 18.578125 -42.097656 18.109375 -41.734375 C 17.648438 -41.378906 17.222656 -40.9375 16.828125 -40.40625 L 15.75 -38.8125 C 15.414062 -38.289062 15.050781 -37.832031 14.65625 -37.4375 C 14.71875 -37.363281 14.75 -37.03125 14.75 -36.4375 C 14.75 -35.976562 14.695312 -35.515625 14.59375 -35.046875 C 14.5 -34.585938 14.453125 -34.128906 14.453125 -33.671875 C 14.453125 -33.140625 14.597656 -32.757812 14.890625 -32.53125 C 15.191406 -32.300781 15.441406 -32.050781 15.640625 -31.78125 C 15.773438 -32.507812 16.269531 -32.875 17.125 -32.875 C 18.25 -32.875 19.71875 -32.660156 21.53125 -32.234375 C 23.351562 -31.804688 25.054688 -31.59375 26.640625 -31.59375 C 28.222656 -31.59375 29.242188 -31.722656 29.703125 -31.984375 Z M 17.03125 -34.0625 C 17.03125 -34.59375 16.929688 -35.070312 16.734375 -35.5 C 16.535156 -35.925781 16.4375 -36.335938 16.4375 -36.734375 C 16.4375 -37.265625 16.679688 -37.742188 17.171875 -38.171875 C 17.671875 -38.597656 18.300781 -38.960938 19.0625 -39.265625 C 19.820312 -39.566406 20.660156 -39.796875 21.578125 -39.953125 C 22.503906 -40.117188 23.429688 -40.203125 24.359375 -40.203125 C 26.410156 -40.203125 27.765625 -39.671875 28.421875 -38.609375 C 29.078125 -37.554688 29.40625 -36.175781 29.40625 -34.46875 C 29.082031 -34.46875 28.738281 -34.484375 28.375 -34.515625 C 28.007812 -34.546875 27.695312 -34.5625 27.4375 -34.5625 C 26.96875 -34.5625 26.734375 -34.429688 26.734375 -34.171875 C 26.671875 -34.234375 26.210938 -34.363281 25.359375 -34.5625 L 25.359375 -34.359375 C 25.359375 -34.296875 25.390625 -34.265625 25.453125 -34.265625 C 25.453125 -34.203125 25.421875 -34.132812 25.359375 -34.0625 C 24.828125 -34.132812 24.015625 -34.171875 22.921875 -34.171875 C 21.835938 -34.171875 20.601562 -34.171875 19.21875 -34.171875 C 17.894531 -34.171875 17.164062 -34.132812 17.03125 -34.0625 Z M 17.03125 -34.0625 "/></g></g></g><g fill="#ffffff" fill-opacity="1"><g transform="translate(309.885865, 109.499996)"><g><path d="M 25.65625 -24.65625 C 27.363281 -24.59375 29.039062 -24.476562 30.6875 -24.3125 C 32.34375 -24.144531 33.898438 -24.0625 35.359375 -24.0625 C 36.609375 -24.0625 37.726562 -24.160156 38.71875 -24.359375 C 39.707031 -24.554688 40.566406 -25.019531 41.296875 -25.75 C 41.554688 -26.601562 41.6875 -27.890625 41.6875 -29.609375 C 41.6875 -31.328125 41.535156 -33.039062 41.234375 -34.75 C 40.941406 -36.46875 40.664062 -38.085938 40.40625 -39.609375 C 39.8125 -39.941406 39.460938 -40.535156 39.359375 -41.390625 C 39.265625 -42.253906 39.050781 -43.046875 38.71875 -43.765625 C 38.382812 -44.753906 37.722656 -45.675781 36.734375 -46.53125 C 35.742188 -47.394531 34.539062 -48.140625 33.125 -48.765625 C 31.707031 -49.398438 30.15625 -49.894531 28.46875 -50.25 C 26.789062 -50.613281 25.09375 -50.796875 23.375 -50.796875 C 21.59375 -50.796875 19.875 -50.679688 18.21875 -50.453125 C 16.570312 -50.222656 15.070312 -49.910156 13.71875 -49.515625 C 12.363281 -49.117188 11.191406 -48.671875 10.203125 -48.171875 C 9.210938 -47.679688 8.484375 -47.207031 8.015625 -46.75 C 5.972656 -44.757812 4.554688 -42.144531 3.765625 -38.90625 C 2.972656 -35.675781 2.578125 -32.148438 2.578125 -28.328125 L 2.578125 -21.296875 C 2.578125 -18.191406 2.988281 -15.269531 3.8125 -12.53125 C 4.632812 -9.789062 5.882812 -7.394531 7.5625 -5.34375 C 9.25 -3.300781 11.363281 -1.6875 13.90625 -0.5 C 16.457031 0.6875 19.445312 1.28125 22.875 1.28125 C 24.457031 1.28125 26.054688 1.128906 27.671875 0.828125 C 29.296875 0.535156 30.832031 0.113281 32.28125 -0.4375 C 33.738281 -1 35.023438 -1.625 36.140625 -2.3125 C 37.265625 -3.007812 38.191406 -3.757812 38.921875 -4.5625 C 39.710938 -5.476562 40.222656 -6.742188 40.453125 -8.359375 C 40.679688 -9.984375 40.796875 -11.65625 40.796875 -13.375 C 40.796875 -14.488281 40.78125 -15.625 40.75 -16.78125 C 40.71875 -17.9375 40.703125 -19.007812 40.703125 -20 C 40.441406 -19.738281 40.015625 -19.609375 39.421875 -19.609375 C 39.085938 -19.609375 38.539062 -19.609375 37.78125 -19.609375 C 37.019531 -19.609375 36.160156 -19.609375 35.203125 -19.609375 C 34.242188 -19.609375 33.234375 -19.640625 32.171875 -19.703125 C 31.117188 -19.773438 30.164062 -19.875 29.3125 -20 C 29.175781 -17.882812 28.644531 -16.019531 27.71875 -14.40625 C 26.800781 -12.789062 25.21875 -11.984375 22.96875 -11.984375 C 21.257812 -11.984375 20.023438 -12.441406 19.265625 -13.359375 C 18.503906 -14.285156 17.957031 -15.441406 17.625 -16.828125 C 17.289062 -18.222656 17.054688 -19.691406 16.921875 -21.234375 C 16.796875 -22.785156 16.535156 -24.222656 16.140625 -25.546875 C 16.796875 -25.222656 17.4375 -24.992188 18.0625 -24.859375 C 18.695312 -24.722656 19.3125 -24.65625 19.90625 -24.65625 C 20.4375 -24.65625 20.960938 -24.6875 21.484375 -24.75 C 22.015625 -24.820312 22.507812 -24.859375 22.96875 -24.859375 C 23.300781 -24.859375 23.664062 -24.789062 24.0625 -24.65625 C 24.457031 -24.519531 24.820312 -24.453125 25.15625 -24.453125 Z M 16.53125 -27.828125 C 16.207031 -27.234375 15.878906 -26.9375 15.546875 -26.9375 C 15.410156 -26.9375 15.273438 -26.953125 15.140625 -26.984375 C 15.015625 -27.015625 14.882812 -27.03125 14.75 -27.03125 C 14.226562 -25.113281 13.96875 -23.429688 13.96875 -21.984375 C 13.96875 -20.460938 14.164062 -18.941406 14.5625 -17.421875 C 14.957031 -15.910156 15.53125 -14.5625 16.28125 -13.375 C 17.039062 -12.1875 17.984375 -11.210938 19.109375 -10.453125 C 20.234375 -9.691406 21.519531 -9.3125 22.96875 -9.3125 C 24.226562 -9.3125 25.285156 -9.640625 26.140625 -10.296875 C 27.003906 -10.960938 27.734375 -11.789062 28.328125 -12.78125 C 28.921875 -13.769531 29.429688 -14.84375 29.859375 -16 C 30.285156 -17.15625 30.695312 -18.191406 31.09375 -19.109375 C 31.425781 -19.046875 31.707031 -19.015625 31.9375 -19.015625 C 32.164062 -19.015625 32.414062 -19.015625 32.6875 -19.015625 L 36.25 -19.015625 C 36.769531 -19.015625 37.296875 -19 37.828125 -18.96875 C 38.359375 -18.9375 38.953125 -18.882812 39.609375 -18.8125 C 39.609375 -13.40625 38.453125 -8.953125 36.140625 -5.453125 C 35.347656 -4.460938 34.625 -3.6875 33.96875 -3.125 C 33.3125 -2.5625 32.550781 -2.128906 31.6875 -1.828125 C 30.832031 -1.535156 29.789062 -1.351562 28.5625 -1.28125 C 27.34375 -1.21875 25.773438 -1.1875 23.859375 -1.1875 C 22.742188 -1.1875 21.609375 -1.203125 20.453125 -1.234375 C 19.296875 -1.265625 18.054688 -1.347656 16.734375 -1.484375 C 14.816406 -1.679688 13.03125 -2.554688 11.375 -4.109375 C 9.726562 -5.660156 8.28125 -7.691406 7.03125 -10.203125 C 5.78125 -12.710938 4.804688 -15.582031 4.109375 -18.8125 C 3.410156 -22.050781 3.0625 -25.484375 3.0625 -29.109375 C 3.0625 -33.597656 3.722656 -37.144531 5.046875 -39.75 C 6.367188 -42.363281 8.003906 -44.347656 9.953125 -45.703125 C 11.898438 -47.054688 13.976562 -47.914062 16.1875 -48.28125 C 18.40625 -48.644531 20.4375 -48.828125 22.28125 -48.828125 C 24.59375 -48.828125 26.703125 -48.707031 28.609375 -48.46875 C 30.523438 -48.238281 31.984375 -47.863281 32.984375 -47.34375 C 37.929688 -44.832031 40.40625 -39.644531 40.40625 -31.78125 C 40.40625 -30.863281 40.351562 -29.925781 40.25 -28.96875 C 40.15625 -28.007812 39.941406 -27.066406 39.609375 -26.140625 C 39.410156 -26.078125 38.914062 -26.046875 38.125 -26.046875 C 34.894531 -26.242188 32.238281 -26.375 30.15625 -26.4375 C 28.070312 -26.507812 26.570312 -26.609375 25.65625 -26.734375 C 24.726562 -26.867188 23.832031 -27.050781 22.96875 -27.28125 C 22.113281 -27.507812 21.222656 -27.625 20.296875 -27.625 C 19.773438 -27.625 19.296875 -27.570312 18.859375 -27.46875 C 18.429688 -27.375 18.019531 -27.328125 17.625 -27.328125 C 17.226562 -27.328125 16.863281 -27.492188 16.53125 -27.828125 Z M 29.703125 -31.984375 C 29.835938 -31.847656 29.921875 -31.726562 29.953125 -31.625 C 29.984375 -31.53125 30.097656 -31.484375 30.296875 -31.484375 C 30.429688 -31.484375 30.660156 -31.847656 30.984375 -32.578125 C 31.316406 -33.304688 31.484375 -33.835938 31.484375 -34.171875 C 31.484375 -35.484375 31.101562 -36.648438 30.34375 -37.671875 C 29.59375 -38.703125 28.851562 -39.644531 28.125 -40.5 C 28.0625 -40.4375 27.894531 -40.40625 27.625 -40.40625 C 27.101562 -40.40625 26.609375 -40.585938 26.140625 -40.953125 C 25.679688 -41.316406 25.15625 -41.5 24.5625 -41.5 C 24.289062 -41.5 24.039062 -41.476562 23.8125 -41.4375 C 23.582031 -41.40625 23.335938 -41.390625 23.078125 -41.390625 C 22.410156 -41.390625 21.878906 -41.535156 21.484375 -41.828125 C 21.085938 -42.128906 20.5625 -42.28125 19.90625 -42.28125 C 19.175781 -42.28125 18.578125 -42.097656 18.109375 -41.734375 C 17.648438 -41.378906 17.222656 -40.9375 16.828125 -40.40625 L 15.75 -38.8125 C 15.414062 -38.289062 15.050781 -37.832031 14.65625 -37.4375 C 14.71875 -37.363281 14.75 -37.03125 14.75 -36.4375 C 14.75 -35.976562 14.695312 -35.515625 14.59375 -35.046875 C 14.5 -34.585938 14.453125 -34.128906 14.453125 -33.671875 C 14.453125 -33.140625 14.597656 -32.757812 14.890625 -32.53125 C 15.191406 -32.300781 15.441406 -32.050781 15.640625 -31.78125 C 15.773438 -32.507812 16.269531 -32.875 17.125 -32.875 C 18.25 -32.875 19.71875 -32.660156 21.53125 -32.234375 C 23.351562 -31.804688 25.054688 -31.59375 26.640625 -31.59375 C 28.222656 -31.59375 29.242188 -31.722656 29.703125 -31.984375 Z M 17.03125 -34.0625 C 17.03125 -34.59375 16.929688 -35.070312 16.734375 -35.5 C 16.535156 -35.925781 16.4375 -36.335938 16.4375 -36.734375 C 16.4375 -37.265625 16.679688 -37.742188 17.171875 -38.171875 C 17.671875 -38.597656 18.300781 -38.960938 19.0625 -39.265625 C 19.820312 -39.566406 20.660156 -39.796875 21.578125 -39.953125 C 22.503906 -40.117188 23.429688 -40.203125 24.359375 -40.203125 C 26.410156 -40.203125 27.765625 -39.671875 28.421875 -38.609375 C 29.078125 -37.554688 29.40625 -36.175781 29.40625 -34.46875 C 29.082031 -34.46875 28.738281 -34.484375 28.375 -34.515625 C 28.007812 -34.546875 27.695312 -34.5625 27.4375 -34.5625 C 26.96875 -34.5625 26.734375 -34.429688 26.734375 -34.171875 C 26.671875 -34.234375 26.210938 -34.363281 25.359375 -34.5625 L 25.359375 -34.359375 C 25.359375 -34.296875 25.390625 -34.265625 25.453125 -34.265625 C 25.453125 -34.203125 25.421875 -34.132812 25.359375 -34.0625 C 24.828125 -34.132812 24.015625 -34.171875 22.921875 -34.171875 C 21.835938 -34.171875 20.601562 -34.171875 19.21875 -34.171875 C 17.894531 -34.171875 17.164062 -34.132812 17.03125 -34.0625 Z M 17.03125 -34.0625 "/></g></g></g><g clip-path="url(#3ed92680c0)"><path fill="#ffffff" d="M 125.597656 75.480469 L 117.363281 70.554688 L 117.363281 60.820312 C 117.363281 60.648438 117.273438 60.488281 117.125 60.398438 L 108.652344 55.210938 C 108.492188 55.113281 108.292969 55.113281 108.136719 55.210938 L 99.660156 60.398438 C 99.515625 60.488281 99.425781 60.648438 99.425781 60.820312 L 99.425781 70.554688 L 91.441406 75.328125 L 83.21875 70.414062 C 83.066406 70.320312 82.871094 70.320312 82.714844 70.414062 L 74.238281 75.480469 C 74.089844 75.570312 74 75.730469 74 75.902344 L 74 85.898438 C 73.347656 87.550781 72.589844 89.882812 72.589844 91.769531 C 72.589844 92.554688 72.722656 93.320312 72.984375 94.039062 C 73.394531 95.164062 74.464844 95.890625 75.710938 95.890625 C 76.960938 95.890625 78.03125 95.164062 78.441406 94.039062 C 78.703125 93.320312 78.835938 92.554688 78.835938 91.769531 C 78.835938 90.96875 78.699219 90.019531 78.421875 88.941406 L 82.472656 91.386719 L 82.472656 101.242188 C 82.472656 101.417969 82.566406 101.578125 82.714844 101.667969 L 85.554688 103.363281 L 85.554688 104.738281 C 85.519531 107.003906 86.15625 108.613281 87.140625 108.742188 C 87.804688 108.832031 88.230469 108.148438 88.574219 107.597656 C 88.632812 107.503906 88.707031 107.386719 88.769531 107.292969 C 88.972656 107.691406 88.824219 109.035156 88.722656 109.964844 C 88.492188 112.066406 88.207031 114.675781 89.550781 116.175781 C 90.234375 116.9375 91.257812 117.324219 92.597656 117.324219 C 93.996094 117.324219 95.132812 116.882812 95.886719 116.042969 C 96.660156 115.183594 97 113.921875 96.84375 112.496094 C 96.714844 111.296875 96.308594 110.046875 95.949219 108.949219 C 95.667969 108.085938 95.144531 106.484375 95.433594 106.386719 C 95.480469 106.375 95.695312 106.488281 95.828125 106.554688 C 96.214844 106.753906 96.800781 107.058594 97.4375 106.75 C 98.140625 106.410156 98.316406 105.582031 98.472656 104.851562 C 98.628906 104.125 98.679688 103.367188 98.621094 102.59375 L 99.917969 101.820312 L 105.828125 105.351562 C 104.988281 107.328125 104.5625 108.996094 104.5625 110.316406 C 104.5625 111.160156 104.738281 111.976562 105.078125 112.742188 C 105.601562 113.921875 106.898438 114.65625 108.457031 114.65625 C 110.019531 114.65625 111.316406 113.921875 111.839844 112.742188 C 112.179688 111.972656 112.351562 111.15625 112.351562 110.316406 C 112.351562 108.980469 111.921875 107.292969 111.066406 105.289062 L 117.121094 101.667969 C 117.269531 101.578125 117.363281 101.417969 117.363281 101.246094 L 117.363281 91.386719 L 125.597656 86.460938 C 125.746094 86.375 125.835938 86.214844 125.835938 86.039062 L 125.835938 75.902344 C 125.839844 75.730469 125.746094 75.570312 125.597656 75.480469 Z M 108.394531 56.210938 L 116.375 61.097656 L 116.375 70.554688 L 108.394531 75.328125 L 100.410156 70.554688 L 100.410156 61.097656 Z M 99.917969 90.53125 L 91.9375 85.757812 L 91.9375 76.183594 L 99.917969 71.410156 L 107.902344 76.183594 L 107.902344 85.757812 Z M 77.851562 87.445312 C 77.675781 87.339844 77.449219 87.351562 77.289062 87.480469 C 77.128906 87.609375 77.0625 87.820312 77.125 88.019531 C 77.605469 89.515625 77.851562 90.777344 77.851562 91.769531 C 77.851562 92.441406 77.738281 93.089844 77.515625 93.703125 C 77.191406 94.585938 76.371094 94.902344 75.710938 94.902344 C 75.050781 94.902344 74.230469 94.585938 73.910156 93.703125 C 73.6875 93.089844 73.574219 92.441406 73.574219 91.769531 C 73.574219 89.910156 74.4375 87.46875 74.949219 86.175781 C 74.972656 86.117188 74.984375 86.054688 74.984375 85.992188 L 74.984375 76.183594 L 82.96875 71.410156 L 90.949219 76.183594 L 90.949219 85.757812 L 82.96875 90.53125 Z M 97.847656 101.90625 C 97.683594 102.003906 97.589844 102.191406 97.613281 102.386719 C 97.699219 103.160156 97.664062 103.921875 97.511719 104.640625 C 97.402344 105.152344 97.277344 105.730469 97.007812 105.859375 C 96.832031 105.945312 96.644531 105.867188 96.277344 105.675781 C 95.941406 105.503906 95.5625 105.308594 95.140625 105.445312 C 93.898438 105.855469 94.414062 107.429688 95.011719 109.253906 C 95.355469 110.308594 95.746094 111.503906 95.863281 112.601562 C 95.988281 113.746094 95.734375 114.734375 95.152344 115.386719 C 94.585938 116.015625 93.726562 116.335938 92.597656 116.335938 C 91.535156 116.335938 90.78125 116.070312 90.285156 115.519531 C 89.234375 114.347656 89.496094 111.976562 89.703125 110.074219 C 89.914062 108.136719 90.097656 106.464844 88.84375 106.210938 C 88.34375 106.109375 88.050781 106.578125 87.738281 107.074219 C 87.617188 107.265625 87.375 107.65625 87.238281 107.753906 C 87.007812 107.632812 86.511719 106.65625 86.542969 104.746094 L 86.542969 103.085938 C 86.542969 102.910156 86.449219 102.75 86.300781 102.660156 L 83.460938 100.960938 L 83.460938 91.386719 L 91.441406 86.613281 L 99.425781 91.386719 L 99.425781 100.960938 Z M 110.1875 104.664062 C 109.972656 104.792969 109.886719 105.0625 109.988281 105.289062 C 110.890625 107.3125 111.367188 109.050781 111.367188 110.316406 C 111.367188 111.019531 111.222656 111.699219 110.9375 112.34375 C 110.582031 113.148438 109.609375 113.667969 108.460938 113.667969 C 107.308594 113.667969 106.335938 113.148438 105.980469 112.34375 C 105.695312 111.699219 105.550781 111.019531 105.550781 110.316406 C 105.550781 109.0625 106.019531 107.34375 106.902344 105.347656 C 107.003906 105.121094 106.917969 104.855469 106.703125 104.726562 L 100.410156 100.964844 L 100.410156 91.386719 L 108.394531 86.613281 L 116.375 91.386719 L 116.375 100.964844 Z M 124.851562 85.757812 L 116.871094 90.53125 L 108.886719 85.757812 L 108.886719 76.183594 L 116.871094 71.410156 L 124.851562 76.183594 Z M 124.851562 85.757812 " fill-opacity="1" fill-rule="nonzero"/></g><path fill="#ffffff" d="M 86.050781 109.714844 C 85.140625 109.714844 84.398438 110.460938 84.398438 111.378906 C 84.398438 112.296875 85.140625 113.042969 86.050781 113.042969 C 86.957031 113.042969 87.699219 112.296875 87.699219 111.378906 C 87.699219 110.460938 86.957031 109.714844 86.050781 109.714844 Z M 86.050781 112.054688 C 85.683594 112.054688 85.386719 111.75 85.386719 111.378906 C 85.386719 111.007812 85.683594 110.703125 86.050781 110.703125 C 86.414062 110.703125 86.710938 111.003906 86.710938 111.378906 C 86.710938 111.75 86.414062 112.054688 86.050781 112.054688 Z M 86.050781 112.054688 " fill-opacity="1" fill-rule="nonzero"/><path fill="#ffffff" d="M 92.984375 110.886719 C 92.074219 110.886719 91.335938 111.632812 91.335938 112.546875 C 91.335938 113.464844 92.074219 114.210938 92.984375 114.210938 C 93.894531 114.210938 94.632812 113.464844 94.632812 112.546875 C 94.632812 111.632812 93.894531 110.886719 92.984375 110.886719 Z M 92.984375 113.222656 C 92.617188 113.222656 92.320312 112.921875 92.320312 112.546875 C 92.320312 112.175781 92.617188 111.871094 92.984375 111.871094 C 93.347656 111.871094 93.644531 112.175781 93.644531 112.546875 C 93.644531 112.921875 93.347656 113.222656 92.984375 113.222656 Z M 92.984375 113.222656 " fill-opacity="1" fill-rule="nonzero"/></svg>