<svg width="100" height="100" viewBox="0 0 100 100" fill="none" xmlns="http://www.w3.org/2000/svg">
<path d="M36.3601 64.2587H62.8361C62.808 64.3889 62.7674 64.5129 62.7111 64.6327C62.4455 65.1837 62.1611 65.7171 61.8945 66.2504C61.183 67.6525 60.434 69.1108 59.6549 70.5327C59.557 70.6546 59.4392 70.7514 59.2997 70.8223C59.1601 70.8931 59.0122 70.9327 58.8559 70.94C52.7205 70.9764 46.4892 70.9764 40.3236 70.94C40.0528 70.9421 39.8215 70.8483 39.6299 70.6566C38.7413 68.9681 37.8538 67.2264 37.0007 65.5431L36.3747 64.3306C36.3747 64.3129 36.3601 64.2754 36.3601 64.2587ZM42.8965 77.7358C43.5507 78.5681 44.2903 79.315 45.1153 79.9775C45.9403 80.64 46.8288 81.2014 47.782 81.6608V85.9337C47.782 86.0535 47.7934 86.1723 47.8174 86.29C47.8403 86.4077 47.8757 86.5212 47.9215 86.6327C47.9674 86.7431 48.0236 86.8483 48.0903 86.9483C48.157 87.0483 48.232 87.14 48.3174 87.2243C48.4017 87.3098 48.4945 87.3858 48.5934 87.4525C48.6934 87.5181 48.7986 87.5744 48.909 87.6212C49.0205 87.6671 49.134 87.7014 49.2517 87.7243C49.3695 87.7483 49.4882 87.7598 49.608 87.7598C49.7278 87.7598 49.8465 87.7483 49.9642 87.7243C50.082 87.7014 50.1965 87.6671 50.307 87.6212C50.4184 87.5744 50.5236 87.5181 50.6226 87.4525C50.7226 87.3858 50.8153 87.3098 50.8997 87.2243C50.984 87.14 51.0601 87.0483 51.1267 86.9483C51.1934 86.8483 51.2497 86.7431 51.2955 86.6327C51.3413 86.5212 51.3757 86.4077 51.3997 86.29C51.4226 86.1723 51.434 86.0535 51.434 85.9337V81.5858L51.4695 81.5681C52.1788 81.2452 52.8497 80.8556 53.4809 80.3993C55.3684 78.9285 56.9215 77.165 58.1434 75.1077H40.9986C41.559 76.0368 42.1913 76.9129 42.8965 77.7358ZM34.5913 31.4994L34.4778 31.5296C34.5257 29.6087 34.9122 27.7587 35.6361 25.9785L35.6559 25.9244C35.8278 25.5098 36.0257 25.091 36.2507 24.6681C36.3299 24.5212 36.4038 24.3629 36.4892 24.215C36.6434 23.9441 36.8267 23.6754 37.0059 23.4056C37.1424 23.2025 37.2674 22.9931 37.4142 22.8004C37.4434 22.7608 37.4622 22.7212 37.4924 22.6837C38.0705 21.9316 38.7174 21.2452 39.434 20.6254C39.1455 20.0025 38.7997 19.4139 38.3955 18.8587C37.9299 18.2869 37.4111 17.7691 36.8382 17.3056C36.3715 16.9608 35.8778 16.6577 35.3601 16.3962C35.257 16.3337 35.1622 16.2629 35.0736 16.1827C34.9851 16.1025 34.9049 16.015 34.833 15.9191C34.7611 15.8233 34.6997 15.7212 34.6476 15.6139C34.5965 15.5066 34.5549 15.3941 34.5247 15.2785C34.4945 15.1629 34.4757 15.0462 34.4684 14.9264C34.4601 14.8077 34.4642 14.6889 34.4799 14.5702C34.4955 14.4514 34.5226 14.3358 34.5601 14.2223C34.5976 14.1087 34.6465 14.0004 34.7049 13.8962C34.8267 13.6931 34.9809 13.5181 35.1684 13.3733C35.3559 13.2285 35.5632 13.1233 35.7903 13.0577C36.0288 12.9983 36.2684 12.9848 36.5111 13.0171C36.7549 13.0483 36.983 13.1233 37.1976 13.2421C38.4497 13.8712 39.5528 14.6983 40.507 15.7254C41.0267 16.2848 41.4934 16.8837 41.908 17.5254C42.1205 17.8587 42.3122 18.2035 42.483 18.5598C43.933 17.8327 45.4559 17.3275 47.0528 17.0441C47.2163 17.015 47.382 16.9889 47.5455 16.966C48.1403 16.8712 48.7392 16.815 49.3413 16.7952H49.3528C49.9205 16.7921 50.4861 16.8244 51.0507 16.891C51.3247 16.9191 51.5997 16.9608 51.8757 17.0056C52.3257 17.0785 52.8122 17.1712 53.3361 17.2973L53.5934 17.3796C54.6851 17.6671 55.7351 18.0639 56.7434 18.5702C56.9174 18.2087 57.1122 17.8598 57.3278 17.5223C57.7424 16.8827 58.208 16.2848 58.7278 15.7264C59.6788 14.7004 60.7799 13.8723 62.0288 13.2421C62.2434 13.1233 62.4726 13.0483 62.7153 13.0171C62.958 12.9848 63.1986 12.9983 63.4361 13.0577C63.6642 13.1223 63.8736 13.2275 64.0622 13.3723C64.2507 13.5171 64.4059 13.6921 64.5278 13.8962C64.5861 14.0004 64.6351 14.1087 64.6726 14.2223C64.7101 14.3358 64.7372 14.4514 64.7528 14.5702C64.7674 14.6889 64.7715 14.8077 64.7642 14.9264C64.757 15.0462 64.7372 15.1629 64.707 15.2785C64.6767 15.3941 64.6361 15.5056 64.584 15.6139C64.532 15.7212 64.4705 15.8233 64.3986 15.9191C64.3278 16.015 64.2476 16.1025 64.159 16.1827C64.0705 16.2629 63.9747 16.3337 63.8726 16.3962C63.3549 16.6577 62.8611 16.9608 62.3945 17.3056C61.8215 17.7712 61.3017 18.291 60.8372 18.865C60.4361 19.416 60.0913 20.0004 59.8038 20.6181C60.4684 21.1973 61.0726 21.8337 61.6174 22.5275C61.658 22.5796 61.7017 22.6296 61.7424 22.6827C61.784 22.7348 61.8028 22.7514 61.832 22.79C62.2934 23.4233 62.7038 24.0879 63.0622 24.7837C63.4215 25.4796 63.7247 26.1983 63.9726 26.941C64.2205 27.6837 64.4101 28.441 64.5403 29.2139C64.6715 29.9858 64.7424 30.7629 64.7538 31.5462C64.3267 31.3921 63.9142 31.2379 63.4976 31.0837C63.2903 31.0066 63.0767 30.9306 62.8705 30.8535C62.559 30.7369 62.2517 30.6254 61.9413 30.5098C61.2111 30.2369 60.4809 29.9608 59.7497 29.6994C58.2392 29.1556 56.6986 28.6098 55.1434 28.0671C53.5892 27.5254 52.0205 26.9889 50.457 26.4598C50.2132 26.3869 49.9653 26.3514 49.7101 26.3535C49.3403 26.3608 48.9788 26.4202 48.6267 26.5316C46.082 27.4087 43.532 28.3171 41.0153 29.2202L38.4997 30.1202L37.1497 30.5973L34.6788 31.4744L34.5913 31.4994ZM59.7861 20.6035L59.8205 20.5244C59.8101 20.5525 59.7986 20.5754 59.7861 20.6035ZM39.4434 20.616C39.4299 20.5858 39.4153 20.5577 39.4017 20.5275L39.4434 20.616ZM84.3361 46.6869C83.6476 45.691 82.8413 44.8014 81.9174 44.0181C80.9934 43.2348 79.984 42.5848 78.8882 42.0691C73.6507 39.3806 68.2549 37.0598 62.7007 35.1046C60.409 34.2285 58.1517 33.4337 55.7528 32.5639C54.7945 32.2077 53.7997 31.8702 52.8226 31.4973V31.5504C52.8945 31.8108 52.983 32.065 53.0882 32.3139C53.7101 34.0035 54.3507 35.6556 54.9715 37.3254C56.7132 41.9619 58.508 46.7598 60.3913 51.4337C61.5403 54.2587 62.9195 56.965 64.532 59.5535C64.807 60.0171 65.1142 60.4587 65.4549 60.8785C65.7945 61.2973 66.1622 61.69 66.5601 62.0546C66.957 62.4202 67.3788 62.7546 67.8247 63.0587C68.2705 63.3619 68.7361 63.6316 69.2215 63.8671C69.707 64.1035 70.207 64.3025 70.7215 64.465C71.2361 64.6275 71.759 64.7514 72.2924 64.8379C72.8247 64.9244 73.3611 64.9712 73.9007 64.9785C74.4403 64.9869 74.9767 64.9556 75.5122 64.8848C76.5184 64.7712 77.4934 64.5306 78.4372 64.1618C79.3809 63.7941 80.2622 63.3108 81.0799 62.7139C81.9278 62.1025 82.6882 61.3973 83.3632 60.5983C84.0372 59.7994 84.6049 58.9316 85.0653 57.9931C85.2872 57.5504 85.4788 57.0941 85.6403 56.6264C85.8017 56.1577 85.932 55.6806 86.0309 55.1952C86.1288 54.7087 86.1955 54.2191 86.2288 53.7243C86.2622 53.2306 86.2632 52.7358 86.2309 52.241C86.1997 51.7473 86.1351 51.2566 86.0382 50.7702C85.9413 50.2848 85.8132 49.8066 85.6528 49.3379C85.4934 48.8691 85.3028 48.4129 85.082 47.9691C84.8622 47.5254 84.6132 47.0983 84.3361 46.6869ZM44.232 37.6598C45.0153 35.615 45.7965 33.5691 46.5955 31.5244C46.582 31.5223 46.5705 31.516 46.5611 31.5066C46.5247 31.5066 46.4892 31.5244 46.4538 31.5244C46.3445 31.5504 46.2382 31.5869 46.134 31.6306C44.3559 32.2879 42.5622 32.9452 40.7861 33.6025C37.107 34.9525 33.2872 36.3566 29.5726 37.815C25.584 39.2577 21.7934 41.1077 18.2007 43.3629C17.7215 43.6764 17.2684 44.0244 16.8413 44.4046C16.4142 44.7858 16.0174 45.1973 15.6517 45.6369C15.2861 46.0775 14.9549 46.5431 14.658 47.0327C14.3622 47.5233 14.1038 48.0316 13.883 48.5608C13.6632 49.0889 13.483 49.6306 13.3445 50.1869C13.2049 50.7421 13.108 51.3046 13.0528 51.8744C12.9976 52.4441 12.9861 53.015 13.0163 53.5868C13.0465 54.1587 13.1184 54.7254 13.234 55.2858C13.3945 56.0629 13.6299 56.8171 13.9392 57.5473C14.2486 58.2775 14.6267 58.9702 15.0736 59.6264C15.5205 60.2816 16.0267 60.8879 16.5934 61.4431C17.1601 61.9983 17.7747 62.4931 18.4392 62.9264C19.083 63.3598 19.7632 63.7254 20.4799 64.0243C21.1955 64.3233 21.934 64.5494 22.6945 64.7035C23.4549 64.8577 24.2236 64.9358 24.9986 64.9389C25.7747 64.9421 26.5434 64.8691 27.3059 64.7212C27.7403 64.6337 28.1674 64.5223 28.5892 64.3858C29.0101 64.2504 29.4215 64.09 29.8247 63.9056C30.2278 63.7212 30.6184 63.515 30.9965 63.2858C31.3757 63.0556 31.7392 62.8056 32.0892 62.5337C32.4392 62.2618 32.7715 61.9712 33.0872 61.6608C33.4038 61.3504 33.7007 61.0233 33.9778 60.6785C34.2559 60.3337 34.5132 59.9743 34.7497 59.5993C34.9851 59.2254 35.1997 58.8379 35.3903 58.4389C36.8247 55.8035 38.1215 53.1025 39.282 50.3368C40.9622 46.1358 42.634 41.8181 44.232 37.6598ZM42.2424 53.6702C41.2476 55.6775 40.2174 57.7743 39.0965 60.1191H60.0424L60.007 60.0316C58.9757 57.8629 57.9445 55.7129 56.9142 53.6035C56.8028 53.4869 56.6663 53.4275 56.5049 53.4244C53.9299 53.4077 51.283 53.4077 48.5986 53.4077C46.6455 53.4077 44.6715 53.4077 42.682 53.4244C42.5038 53.4504 42.358 53.5327 42.2424 53.6702ZM52.5299 42.7775L52.4455 42.7421V42.6712L52.007 41.4098C51.7049 40.5337 51.4038 39.6671 51.084 38.7806L50.6205 37.5191C50.3017 36.5952 49.9642 35.6889 49.608 34.6764L49.2528 35.7066C48.3653 38.1775 47.5663 40.4171 46.7695 42.6723L46.7153 42.7619C46.6538 42.8514 46.5997 42.9452 46.5549 43.0452C46.0236 44.4858 45.4726 45.8879 44.9215 47.2921L44.2101 49.1046C44.1747 49.1785 44.1517 49.2546 44.1403 49.3358H55.0965L54.4747 47.7285C53.8278 46.065 53.1872 44.4066 52.5299 42.7775Z" fill="white"/>
</svg>
